<svg viewBox="0 0 96 96" xmlns="http://www.w3.org/2000/svg" xml:space="preserve" style="fill-rule:evenodd;clip-rule:evenodd;stroke-linejoin:round;stroke-miterlimit:2"><path style="fill:none" d="M0 0h96v96H0z"/><path d="M0-14.795a2.084 2.084 0 1 1 0 4.168 2.084 2.084 0 0 1 0-4.168m24.024.585a87.37 87.37 0 0 0 6.848-.125c1.141-.064 2.151.791 2.25 1.934.098 1.142-.807 2.16-2.012 2.229-2.388.136-4.781.18-7.173.129-1.207-.024-2.147-1.009-2.09-2.153.055-1.146 1.036-2.037 2.177-2.014m-42.185-11.028c-.056 3.61 1.134 6.896 2.864 8.337l.095.074c.192.151.389.278.587.38l.02.01a3.32 3.32 0 0 0 .317.137c.091.034.185.065.278.088.261.066.543.13.842.192 1.683.349 4.836.72 7.457.968a2.137 2.137 0 0 1 .254.024v.001a2.084 2.084 0 0 1-.331 4.14 2.03 2.03 0 0 1-.323-.028v.009l-.286-.026a6.79 6.79 0 0 0-.148-.013l-.517-.049a4.376 4.376 0 0 0-.119-.011l-.504-.05-.127-.013a79.872 79.872 0 0 1-1.151-.123 80.764 80.764 0 0 1-2.353-.294l-.075-.011c-.152-.022-.304-.043-.452-.066l-.148-.023-.362-.055-.188-.031-.302-.05-.208-.037-.264-.046-.215-.041-.237-.045-.212-.043-.219-.045-.206-.045-.176-.039c.119 3.814.669 10.727 2.901 17.81 4.333 13.753 12.692 21.67 24.846 23.534l.213.032.201.075c2.076.776 3.645 1.605 4.663 2.462.566.477.912.57 1.004.587l.241-.037.24.037c.092-.017.438-.11 1.004-.587 1.914-1.611 5.414-2.743 5.808-2.867l.19-.05c3.133-.669 5.985-1.773 8.554-3.303C45.907 14.897 46.871-4.238 46.844-11.256l-.267.031-.196.023-.383.042-.221.024-.383.04-.228.024-.377.037-.253.025a41.782 41.782 0 0 1-.633.06l-.379.034c-.088.008-.177.017-.267.024-.125.012-.251.022-.377.033l-.275.023-.385.032-.276.023-.385.03-.284.022-.383.029-.29.022-.382.028-.299.021a51.25 51.25 0 0 1-.377.026c-.103.007-.205.015-.308.021l-.372.025-.315.021-.368.023-.322.02-.364.023-.33.02-.363.021-.067.004v-.059a2.083 2.083 0 1 1 .117-4.124c4.122-.242 8.183-.569 11.261-1.009 3.881-5.89 2.743-18.686-10.075-21.717-11.755-2.779-18.898-7.646-21.729-9.899-3.912 1.981-11.281 5.114-22.595 7.603-8.622 1.897-11.787 8.678-11.875 14.392" style="fill:#ee2d6d;fill-rule:nonzero" transform="translate(29.338 56.39)"/><path d="M0-4.168A2.084 2.084 0 1 1 0 0a2.084 2.084 0 0 1 0-4.168" style="fill-rule:nonzero" transform="matrix(-1 0 0 1 29.338 45.762)"/><path d="M0-4.278a87.86 87.86 0 0 1-6.848.125c-1.141-.024-2.122.868-2.177 2.013-.057 1.145.883 2.129 2.09 2.154a91.76 91.76 0 0 0 7.173-.13c1.205-.069 2.11-1.086 2.012-2.228C2.151-3.487 1.141-4.342 0-4.278" style="fill-rule:nonzero" transform="translate(60.21 46.333)"/><path d="m0-17.068-.095.074a3.68 3.68 0 0 1-.589.381c-.004.003-.01.005-.015.007a2.896 2.896 0 0 1-.257.115l-.062.024a2.59 2.59 0 0 1-.28.088c-2.986.754-8.67 1.263-14.471 1.603a2.083 2.083 0 1 0-.116 4.125v.059l.067-.004.363-.021.33-.02.364-.023.322-.02.368-.023.315-.021.372-.025.308-.021.377-.026.299-.022c.128-.008.254-.018.381-.027l.29-.022a49.573 49.573 0 0 0 .667-.051l.386-.03.276-.023.385-.032.275-.023c.126-.011.252-.021.377-.033l.267-.024a41.087 41.087 0 0 0 .644-.059 41.782 41.782 0 0 0 .621-.06l.377-.037.227-.024.384-.04.221-.024.383-.042.196-.023.392-.046c.059-.006.117-.014.176-.021l.399-.049.143-.018.415-.054.103-.014a54.294 54.294 0 0 0 2.43-.379l.338-.064.115-.021.287-.059.144-.03c.088-.018.172-.037.257-.056l.142-.032C-.754-8.576-1.158-2.024-3.09 4.815-6.897 18.291-14.564 26.35-25.879 28.767l-.19.05c-.394.124-3.894 1.256-5.808 2.867-.566.477-.912.57-1.004.587l-.24-.037-.241.037c-.092-.017-.438-.11-1.004-.587-1.018-.857-2.587-1.686-4.663-2.462l-.201-.075-.213-.032c-12.154-1.864-20.513-9.781-24.846-23.534-2.232-7.083-2.782-13.996-2.901-17.81l.176.039.205.045.22.045.212.043.237.045.215.041.264.046.208.037.302.049.188.032.361.055.149.023c.148.023.3.044.452.066l.075.011a81.143 81.143 0 0 0 2.97.361l.534.056.127.013.504.05.119.011.517.049.148.013.286.026v-.009c.106.017.213.028.323.028a2.084 2.084 0 0 0 .331-4.14v-.001l-.013-.001a2.137 2.137 0 0 0-.241-.023c-2.621-.248-5.774-.62-7.457-.968a20.116 20.116 0 0 1-.842-.192 2.558 2.558 0 0 1-.278-.088l-.064-.024a3.32 3.32 0 0 1-.253-.113l-.02-.01a3.634 3.634 0 0 1-.587-.38l-.095-.074c-1.73-1.441-2.92-4.728-2.864-8.337.088-5.714 3.253-12.496 11.875-14.392 14.043-3.089 22.012-7.172 24.83-8.812 2.859 1.625 10.989 5.715 25.065 8.812C-.39-37.901 2.776-31.119 2.864-25.405 2.92-21.796 1.73-18.509 0-17.068m7.032-8.401c-.061-4.045-1.331-7.986-3.572-11.097-2.664-3.697-6.666-6.223-11.575-7.302-13.389-2.946-22.094-7.123-24.827-8.92l-1.166-.768-1.158.785c-2.64 1.793-11.168 5.962-24.536 8.903-4.909 1.079-8.912 3.605-11.575 7.302-2.242 3.111-3.511 7.052-3.572 11.097-.07 4.498 1.297 8.431 3.56 10.84-.04 2.724.086 11.757 3.089 21.354 4.745 15.162 14.427 24.312 28.005 26.476 1.47.562 2.645 1.168 3.244 1.672 1.674 1.41 3.089 1.615 3.93 1.564.071.004.147.007.227.007.857 0 2.171-.282 3.703-1.571.939-.792 3.087-1.663 4.286-2.052C-12.197 30.067-3.268 20.777.921 5.949c2.615-9.256 2.614-17.845 2.534-20.56 2.274-2.409 3.647-6.35 3.577-10.858" style="fill-rule:nonzero" transform="translate(81.959 56.556)"/><path d="M0-14.795a2.084 2.084 0 1 1 0 4.168 2.084 2.084 0 0 1 0-4.168m24.024.585a87.37 87.37 0 0 0 6.848-.125c1.141-.064 2.151.791 2.25 1.934.098 1.142-.807 2.16-2.012 2.229-2.388.136-4.781.18-7.173.129-1.207-.024-2.147-1.009-2.09-2.153.055-1.146 1.036-2.037 2.177-2.014m-42.185-11.028c-.056 3.61 1.134 6.896 2.864 8.337l.095.074c.192.151.389.278.587.38l.02.01a3.32 3.32 0 0 0 .317.137c.091.034.185.065.278.088.261.066.543.13.842.192 1.683.349 4.836.72 7.457.968a2.137 2.137 0 0 1 .254.024v.001a2.084 2.084 0 0 1-.331 4.14 2.03 2.03 0 0 1-.323-.028v.009l-.286-.026a6.79 6.79 0 0 0-.148-.013l-.517-.049a4.376 4.376 0 0 0-.119-.011l-.504-.05-.127-.013a79.872 79.872 0 0 1-1.151-.123 80.764 80.764 0 0 1-2.353-.294l-.075-.011c-.152-.022-.304-.043-.452-.066l-.148-.023-.362-.055-.188-.031-.302-.05-.208-.037-.264-.046-.215-.041-.237-.045-.212-.043-.219-.045-.206-.045-.176-.039c.119 3.814.669 10.727 2.901 17.81 4.333 13.753 12.692 21.67 24.846 23.534l.213.032.201.075c2.076.776 3.645 1.605 4.663 2.462.566.477.912.57 1.004.587l.241-.037.24.037c.092-.017.438-.11 1.004-.587 1.914-1.611 5.414-2.743 5.808-2.867l.19-.05c3.133-.669 5.985-1.773 8.554-3.303C45.907 14.897 46.871-4.238 46.844-11.256l-.267.031-.196.023-.383.042-.221.024-.383.04-.228.024-.377.037-.253.025a41.782 41.782 0 0 1-.633.06l-.379.034c-.088.008-.177.017-.267.024-.125.012-.251.022-.377.033l-.275.023-.385.032-.276.023-.385.03-.284.022-.383.029-.29.022-.382.028-.299.021a51.25 51.25 0 0 1-.377.026c-.103.007-.205.015-.308.021l-.372.025-.315.021-.368.023-.322.02-.364.023-.33.02-.363.021-.067.004v-.059a2.083 2.083 0 1 1 .117-4.124c4.122-.242 8.183-.569 11.261-1.009 3.881-5.89 2.743-18.686-10.075-21.717-11.755-2.779-18.898-7.646-21.729-9.899-3.912 1.981-11.281 5.114-22.595 7.603-8.622 1.897-11.787 8.678-11.875 14.392" style="fill:#ee2d6d;fill-rule:nonzero" transform="translate(29.338 56.39)"/><path d="M0-4.168A2.084 2.084 0 1 1 0 0a2.084 2.084 0 0 1 0-4.168" style="fill-rule:nonzero" transform="matrix(-1 0 0 1 29.338 45.762)"/><path d="M0-4.278a87.86 87.86 0 0 1-6.848.125c-1.141-.024-2.122.868-2.177 2.013-.057 1.145.883 2.129 2.09 2.154a91.76 91.76 0 0 0 7.173-.13c1.205-.069 2.11-1.086 2.012-2.228C2.151-3.487 1.141-4.342 0-4.278" style="fill-rule:nonzero" transform="translate(60.21 46.333)"/><path d="m0-17.068-.095.074a3.68 3.68 0 0 1-.589.381c-.004.003-.01.005-.015.007a2.896 2.896 0 0 1-.257.115l-.062.024a2.59 2.59 0 0 1-.28.088c-2.986.754-8.67 1.263-14.471 1.603a2.083 2.083 0 1 0-.116 4.125v.059l.067-.004.363-.021.33-.02.364-.023.322-.02.368-.023.315-.021.372-.025.308-.021.377-.026.299-.022c.128-.008.254-.018.381-.027l.29-.022a49.573 49.573 0 0 0 .667-.051l.386-.03.276-.023.385-.032.275-.023c.126-.011.252-.021.377-.033l.267-.024a41.087 41.087 0 0 0 .644-.059 41.782 41.782 0 0 0 .621-.06l.377-.037.227-.024.384-.04.221-.024.383-.042.196-.023.392-.046c.059-.006.117-.014.176-.021l.399-.049.143-.018.415-.054.103-.014a54.294 54.294 0 0 0 2.43-.379l.338-.064.115-.021.287-.059.144-.03c.088-.018.172-.037.257-.056l.142-.032C-.754-8.576-1.158-2.024-3.09 4.815-6.897 18.291-14.564 26.35-25.879 28.767l-.19.05c-.394.124-3.894 1.256-5.808 2.867-.566.477-.912.57-1.004.587l-.24-.037-.241.037c-.092-.017-.438-.11-1.004-.587-1.018-.857-2.587-1.686-4.663-2.462l-.201-.075-.213-.032c-12.154-1.864-20.513-9.781-24.846-23.534-2.232-7.083-2.782-13.996-2.901-17.81l.176.039.205.045.22.045.212.043.237.045.215.041.264.046.208.037.302.049.188.032.361.055.149.023c.148.023.3.044.452.066l.075.011a81.143 81.143 0 0 0 2.97.361l.534.056.127.013.504.05.119.011.517.049.148.013.286.026v-.009c.106.017.213.028.323.028a2.084 2.084 0 0 0 .331-4.14v-.001l-.013-.001a2.137 2.137 0 0 0-.241-.023c-2.621-.248-5.774-.62-7.457-.968a20.116 20.116 0 0 1-.842-.192 2.558 2.558 0 0 1-.278-.088l-.064-.024a3.32 3.32 0 0 1-.253-.113l-.02-.01a3.634 3.634 0 0 1-.587-.38l-.095-.074c-1.73-1.441-2.92-4.728-2.864-8.337.088-5.714 3.253-12.496 11.875-14.392 14.043-3.089 22.012-7.172 24.83-8.812 2.859 1.625 10.989 5.715 25.065 8.812C-.39-37.901 2.776-31.119 2.864-25.405 2.92-21.796 1.73-18.509 0-17.068m7.032-8.401c-.061-4.045-1.331-7.986-3.572-11.097-2.664-3.697-6.666-6.223-11.575-7.302-13.389-2.946-22.094-7.123-24.827-8.92l-1.166-.768-1.158.785c-2.64 1.793-11.168 5.962-24.536 8.903-4.909 1.079-8.912 3.605-11.575 7.302-2.242 3.111-3.511 7.052-3.572 11.097-.07 4.498 1.297 8.431 3.56 10.84-.04 2.724.086 11.757 3.089 21.354 4.745 15.162 14.427 24.312 28.005 26.476 1.47.562 2.645 1.168 3.244 1.672 1.674 1.41 3.089 1.615 3.93 1.564.071.004.147.007.227.007.857 0 2.171-.282 3.703-1.571.939-.792 3.087-1.663 4.286-2.052C-12.197 30.067-3.268 20.777.921 5.949c2.615-9.256 2.614-17.845 2.534-20.56 2.274-2.409 3.647-6.35 3.577-10.858" style="fill-rule:nonzero" transform="translate(81.959 56.556)"/></svg>